<svg id="Слой_1" data-name="Слой 1" xmlns="http://www.w3.org/2000/svg" viewBox="0 0 45.94 45.94"><defs><style>.cls-1{fill:#fff;stroke:#00d352;stroke-width:2px}</style></defs><circle class="cls-1" cx="22.97" cy="22.97" r="21.97"/><circle class="cls-1" cx="22.97" cy="22.97" r="21.97"/><path d="M32.52 26a9.49 9.49 0 01-19 0 8.31 8.31 0 012.16-6c1.77-2.12 7.32-9.48 7.32-9.48s5.58 7.36 7.32 9.47a8.17 8.17 0 012.2 6.01z" transform="translate(-.06 -.03)" fill="#00d352"/><path d="M22.94 35.45v-1.81m0-18.16v7.26m0 0l3.5-3.63m-3.5 3.63v5.45m0-5.45l-3.49-3.63m7 5.45l-3.51 3.63m0 0v5.45m0-5.45l-3.49-3.63m7 5.45l-3.51 3.63m0 0l-3.46-3.67" fill="none" stroke="#fff" stroke-linecap="round" stroke-linejoin="round" stroke-width="1.5"/></svg>