<svg id="Слой_1" data-name="Слой 1" xmlns="http://www.w3.org/2000/svg" viewBox="0 0 48 48"><circle cx="24" cy="24" r="24" fill="#4fd066"/><path d="M33 26.52a9.5 9.5 0 01-19 0 8.37 8.37 0 012.17-6C17.91 18.38 23.5 11 23.5 11s5.59 7.38 7.33 9.48A8.22 8.22 0 0133 26.52z" fill="#fff"/><path d="M23.5 36v-1.82m0-18.18v7.27m0 0l3.5-3.63m-3.5 3.63v5.46m0-5.46L20 19.64m7 5.45l-3.5 3.64m0 0v5.45m0-5.45L20 25.09m7 5.46l-3.5 3.63m0 0L20 30.55" fill="none" stroke="#4fd066" stroke-linecap="round" stroke-linejoin="round" stroke-width="1.5"/></svg>