<svg id="Слой_1" data-name="Слой 1" xmlns="http://www.w3.org/2000/svg" viewBox="0 0 46 46"><defs><style>.cls-2{stroke-width:2px;fill:#fff;stroke:#4fb04f}</style></defs><circle cx="23" cy="23" r="22" stroke-width="2" stroke="#fff" fill="#4fb04f"/><circle class="cls-2" cx="23" cy="23" r="21.97"/><circle class="cls-2" cx="23" cy="23" r="21.97"/><path d="M32.87 26.41a9.49 9.49 0 01-19 0 8.31 8.31 0 012.16-6c1.74-2.11 7.32-9.47 7.32-9.47s5.65 7.34 7.35 9.45a8.17 8.17 0 012.17 6.02z" transform="translate(-.38 -.4)" fill="#4fb04f"/><path d="M23 35.48v-1.81m0-18.16v7.26m0 0l3.5-3.63M23 22.77v5.45m0-5.45l-3.49-3.63m7 5.45l-3.5 3.63m0 0v5.45m0-5.45l-3.5-3.62m7 5.44l-3.5 3.64m0 0l-3.49-3.64" fill="none" stroke-linecap="round" stroke-linejoin="round" stroke-width="1.5" stroke="#fff"/></svg>