<svg id="Слой_1" data-name="Слой 1" xmlns="http://www.w3.org/2000/svg" viewBox="0 0 46 46"><circle cx="23" cy="23" r="22" fill="#4fb04f" stroke="#fff" stroke-width="2"/><path d="M32.8 26a9.5 9.5 0 01-19 0 8.3 8.3 0 012.2-6c1.74-2.11 7.33-9.49 7.33-9.49s5.55 7.39 7.29 9.49a8.18 8.18 0 012.18 6z" transform="translate(-.38 -.4)" fill="#fff"/><path d="M22.92 35.12v-1.81m0-18.19v7.28m0 0l3.5-3.64m-3.5 3.64v5.45m0-5.45l-3.5-3.64m7 5.46l-3.5 3.63m0 0v5.46m0-5.46l-3.5-3.63m7 5.45l-3.5 3.64m0 0l-3.5-3.64" fill="none" stroke="#4fb04f" stroke-linecap="round" stroke-linejoin="round" stroke-width="1.5"/></svg>