<svg id="Слой_1" data-name="Слой 1" xmlns="http://www.w3.org/2000/svg" viewBox="0 0 307.08 295.06"><defs><clipPath id="clip-path" transform="translate(-2.22 .01)"><path fill="none" d="M2 0h874v295H2z"/></clipPath><style>.cls-3{fill:#e12025}</style></defs><g clip-path="url(#clip-path)"><path class="cls-3" d="M195.1 295.05h-73.82l27.25-22.39V242.8C115.79 240 84.79 216.87 73 193h168c-14 29.17-49.36 49-73 49.24l.13 30.39zm-71.79-120.26H65.37c-11.93-45.14 3.72-92.35 48.5-113.08C159.68 39 208.73 56.18 230.29 86s18.56 82.66-17.42 88.75c-41.26 7-60.4-36.28-34-65.53 11.61-12.8 15.66-24.74 14.52-33.68A17.27 17.27 0 00178 61c-48.27-5.88-60 78.59-54.69 113.79z" transform="translate(-2.22 .01)"/><path class="cls-3" d="M93 288.5l26.5-20.64C-6.34 222.83 15 37.7 153.74 30.21a38.47 38.47 0 016.44 0c149.1 15.66 152.15 196.55 37.12 237.65l26.21 21C368 211.33 318.67 2.64 160.11 0S-66.12 208.48 93 288.5z" transform="translate(-2.22 .01)"/></g></svg>