<?xml version="1.0" encoding="utf-8"?><svg xmlns="http://www.w3.org/2000/svg" xmlns:xlink="http://www.w3.org/1999/xlink"><symbol viewBox="0 0 24 24" id="arrow" xmlns="http://www.w3.org/2000/svg"><path d="M7.33 24L4.5 21.171l9.339-9.175L4.5 2.829 7.33 0 19.5 11.996z"/></symbol><symbol viewBox="0 0 48 48" id="icon-1" xmlns="http://www.w3.org/2000/svg"><circle cx="24" cy="24" r="24"/><path d="M33 26.52a9.5 9.5 0 01-19 0 8.37 8.37 0 012.17-6C17.91 18.38 23.5 11 23.5 11s5.59 7.38 7.33 9.48A8.22 8.22 0 0133 26.52zM23.5 36v-1.82m0-18.18v7.27m0 0l3.5-3.63m-3.5 3.63v5.46m0-5.46L20 19.64m7 5.45l-3.5 3.64m0 0v5.45m0-5.45L20 25.09m7 5.46l-3.5 3.63m0 0L20 30.55"/></symbol><symbol id="icon-2" viewBox="0 0 45.89 45.89" xmlns="http://www.w3.org/2000/svg"><defs><style>.ccls-2{fill:#00d352}</style></defs><circle cx="22.94" cy="22.94" r="21.94" stroke-width="2"/><rect class="ccls-2" x="18.89" y="10.94" width="8" height="24" rx="1"/><rect class="ccls-2" x="10.89" y="18.94" width="24" height="8" rx="1"/></symbol><symbol viewBox="0 0 24 24" id="phone" xmlns="http://www.w3.org/2000/svg"><path d="M20 22.621l-3.521-6.795a618.8 618.8 0 01-2.064 1.011c-2.24 1.086-6.799-7.82-4.609-8.994l2.083-1.026L8.396 0 6.29 1.039c-7.202 3.755 4.233 25.982 11.6 22.615.121-.055 2.102-1.029 2.11-1.033z"/></symbol><symbol clip-rule="evenodd" fill-rule="evenodd" stroke-linejoin="round" stroke-miterlimit="2" viewBox="0 0 24 24" id="search" xmlns="http://www.w3.org/2000/svg"><path d="M15.97 17.031a8.482 8.482 0 01-5.461 1.985C5.812 19.016 2 15.204 2 10.508S5.812 2 10.509 2c4.695 0 8.508 3.812 8.508 8.508a8.476 8.476 0 01-1.985 5.461l4.749 4.75a.748.748 0 01.219.531c0 .587-.537.75-.75.75a.748.748 0 01-.531-.22zm-5.461-13.53c-3.868 0-7.007 3.14-7.007 7.007s3.139 7.007 7.007 7.007c3.866 0 7.007-3.14 7.007-7.007s-3.141-7.007-7.007-7.007z" fill-rule="nonzero"/></symbol><symbol fill-rule="evenodd" clip-rule="evenodd" stroke-linejoin="round" stroke-miterlimit="1.414" viewBox="0 0 24 24" id="telegram" xmlns="http://www.w3.org/2000/svg"><path d="M18.384 22.779a1.19 1.19 0 001.107.145 1.16 1.16 0 00.724-.84C21.084 18 23.192 7.663 23.983 3.948a.78.78 0 00-.26-.758.8.8 0 00-.797-.14C18.733 4.602 5.82 9.447.542 11.4a.827.827 0 00-.542.799c.012.354.25.661.593.764 2.367.708 5.474 1.693 5.474 1.693s1.452 4.385 2.209 6.615c.095.28.314.5.603.576a.866.866 0 00.811-.207l3.096-2.923s3.572 2.619 5.598 4.062zm-11.01-8.677l1.679 5.538.373-3.507 10.185-9.186a.277.277 0 00.033-.377.284.284 0 00-.376-.064L7.374 14.102z"/></symbol><symbol viewBox="0 0 24 24" id="vk" xmlns="http://www.w3.org/2000/svg"><path class="gst0" d="M13.162 18.994c.609 0 .858-.406.851-.915-.031-1.917.714-2.949 2.059-1.604 1.488 1.488 1.796 2.519 3.603 2.519h3.2c.808 0 1.126-.26 1.126-.668 0-.863-1.421-2.386-2.625-3.504-1.686-1.565-1.765-1.602-.313-3.486C22.864 8.997 25.22 6 23.136 6h-3.981c-.772 0-.828.435-1.103 1.083-.995 2.347-2.886 5.387-3.604 4.922-.751-.485-.407-2.406-.35-5.261.015-.754.011-1.271-1.141-1.539A8.07 8.07 0 0011.148 5c-2.273 0-3.841.953-2.95 1.119 1.571.293 1.42 3.692 1.054 5.16-.638 2.556-3.036-2.024-4.035-4.305C4.976 6.426 4.902 6 4.042 6H.787C.295 6 0 6.16 0 6.516c0 .602 2.96 6.72 5.786 9.77 2.756 2.975 5.48 2.708 7.376 2.708z"/></symbol><symbol viewBox="0 0 21 21" id="whatsapp" xmlns="http://www.w3.org/2000/svg"><path d="M17.927 3.063A10.428 10.428 0 0010.537 0C4.757 0 .073 4.667.073 10.427c0 1.823.512 3.646 1.39 5.177L0 21l5.561-1.458c1.537.802 3.22 1.24 4.976 1.24 5.78 0 10.463-4.667 10.463-10.428-.073-2.698-1.098-5.323-3.073-7.291zm-2.342 11.083c-.22.583-1.244 1.166-1.756 1.24a4.104 4.104 0 01-1.61-.073c-.365-.146-.877-.292-1.463-.584-2.634-1.094-4.317-3.719-4.463-3.937-.147-.146-1.098-1.386-1.098-2.698 0-1.313.659-1.896.878-2.188.22-.291.512-.291.732-.291h.512c.146 0 .366-.073.585.437.22.51.732 1.823.805 1.896a.463.463 0 010 .437 1.525 1.525 0 01-.292.438c-.147.146-.293.364-.366.437-.147.146-.293.292-.147.51.147.293.659 1.095 1.464 1.824 1.024.875 1.83 1.166 2.122 1.312.293.146.439.073.585-.073.146-.146.659-.729.805-1.02.146-.292.366-.22.585-.146.22.073 1.537.729 1.757.875.292.146.438.218.512.291.073.22.073.73-.147 1.313z"/></symbol></svg>