<svg id="Слой_1" data-name="Слой 1" xmlns="http://www.w3.org/2000/svg" viewBox="0 0 45.94 45.94"><defs><style>.cls-1{fill:#fff;stroke:#00d352;stroke-width:2px;}.cls-2{fill:#00d352;}.cls-3{fill:none;stroke:#fff;stroke-linecap:round;stroke-linejoin:round;stroke-width:1.5px;}</style></defs><circle class="cls-1" cx="22.97" cy="22.97" r="21.97"/><circle class="cls-1" cx="22.97" cy="22.97" r="21.97"/><path class="cls-2" d="M32.52,26a9.49,9.49,0,0,1-19,0,8.31,8.31,0,0,1,2.16-6C17.45,17.88,23,10.52,23,10.52s5.58,7.36,7.32,9.47A8.17,8.17,0,0,1,32.52,26Z" transform="translate(-0.06 -0.03)"/><path class="cls-3" d="M23,35.48V33.67m0-18.16v7.26m0,0,3.5-3.63M23,22.77v5.45m0-5.45-3.49-3.63m7,5.45L23,28.22m0,0v5.45m0-5.45-3.49-3.63m7,5.45L23,33.67m0,0L19.54,30" transform="translate(-0.06 -0.03)"/></svg>