<svg
  id="icon1"
  data-name="Слой 1"
  xmlns="http://www.w3.org/2000/svg"
  viewBox="0 0 48 48"
><defs><style
    >.cls-1{fill:#fff;}.cls-2{fill:#4fd066;}.cls-3{fill:none;stroke:#fff;stroke-linecap:round;stroke-linejoin:round;stroke-width:1.5px;}</style></defs><circle
    class="cls-1"
    cx="24"
    cy="24"
    r="24"
  /><path
    class="cls-2"
    d="M33,26.52a9.5,9.5,0,0,1-19,0,8.37,8.37,0,0,1,2.17-6C17.91,18.38,23.5,11,23.5,11s5.59,7.38,7.33,9.48A8.22,8.22,0,0,1,33,26.52Z"
  /><path
    class="cls-3"
    d="M23.5,36V34.18M23.5,16v7.27m0,0L27,19.64m-3.5,3.63v5.46m0-5.46L20,19.64m7,5.45-3.5,3.64m0,0v5.45m0-5.45L20,25.09m7,5.46-3.5,3.63m0,0L20,30.55"
  /></svg>
