<svg id="Слой_1" data-name="Слой 1" xmlns="http://www.w3.org/2000/svg" viewBox="0 0 46 46"><defs><style>.cls-1{fill:#4fb04f;stroke:#fff;stroke-width:2px;}.cls-2{fill:#fff;}.cls-3{fill:none;stroke:#4fb04f;stroke-linecap:round;stroke-linejoin:round;stroke-width:1.5px;}</style></defs><circle class="cls-1" cx="23" cy="23" r="22"/><path class="cls-2" d="M32.8,26a9.5,9.5,0,0,1-19,0A8.3,8.3,0,0,1,16,20c1.74-2.11,7.33-9.49,7.33-9.49S28.88,17.9,30.62,20A8.18,8.18,0,0,1,32.8,26Z" transform="translate(-0.38 -0.4)"/><path class="cls-3" d="M23.3,35.52V33.71m0-18.19V22.8m0,0,3.5-3.64M23.3,22.8v5.45m0-5.45-3.5-3.64m7,5.46-3.5,3.63m0,0v5.46m0-5.46-3.5-3.63m7,5.45-3.5,3.64m0,0-3.5-3.64" transform="translate(-0.38 -0.4)"/></svg>