<svg id="Слой_1" data-name="Слой 1" xmlns="http://www.w3.org/2000/svg" xmlns:xlink="http://www.w3.org/1999/xlink" viewBox="0 0 307.08 295.06"><defs><style>.cls-1{fill:none;}.cls-2{clip-path:url(#clip-path);}.cls-3{fill:#e12025;}</style><clipPath id="clip-path" transform="translate(-2.22 0.01)"><rect class="cls-1" x="2" width="874" height="295"/></clipPath></defs><g class="cls-2"><path class="cls-3" d="M195.1,295.05H121.28l27.25-22.39V242.8C115.79,240,84.79,216.87,73,193H241c-14,29.17-49.36,49-73,49.24l.13,30.39Z" transform="translate(-2.22 0.01)"/><path class="cls-3" d="M123.31,174.79H65.37c-11.93-45.14,3.72-92.35,48.5-113.08C159.68,39,208.73,56.18,230.29,86s18.56,82.66-17.42,88.75c-41.26,7-60.4-36.28-34-65.53,11.61-12.8,15.66-24.74,14.52-33.68A17.27,17.27,0,0,0,178,61C129.73,55.12,118,139.59,123.31,174.79Z" transform="translate(-2.22 0.01)"/><path class="cls-3" d="M93,288.5l26.5-20.64C-6.34,222.83,15,37.7,153.74,30.21a38.47,38.47,0,0,1,6.44,0c149.1,15.66,152.15,196.55,37.12,237.65l26.21,21C368,211.33,318.67,2.64,160.11,0S-66.12,208.48,93,288.5Z" transform="translate(-2.22 0.01)"/></g></svg>