<svg id="Слой_1" data-name="Слой 1" xmlns="http://www.w3.org/2000/svg" xmlns:xlink="http://www.w3.org/1999/xlink" viewBox="0 0 872.8 295.06"><defs><style>.cls-1,.cls-6{fill:none;}.cls-2{clip-path:url(#clip-path);}.cls-3{fill:#019847;}.cls-4{fill:#e12025;}.cls-5{fill:#029745;}.cls-6{stroke:#019944;stroke-linecap:round;stroke-width:8px;}.cls-7{fill:#079cd7;}.cls-8{fill:#c6232c;}</style><clipPath id="clip-path" transform="translate(-0.22 0.01)"><rect class="cls-1" width="874" height="295"/></clipPath></defs><g class="cls-2"><path class="cls-3" d="M363.07,251.74a4.09,4.09,0,0,1-3.32-1.86,6.68,6.68,0,0,1-1.18-3.53,50.55,50.55,0,0,1,2.37-9.32q7.28-23.1,7.47-35.47h-.8a5.08,5.08,0,0,1-2.05-.68A5,5,0,0,1,364,199.4a6.65,6.65,0,0,1-1.88-3.63c0-1.13,1.38-2.07,4.13-2.85a35.67,35.67,0,0,1,10.12-1.28q13.75,0,21.22,3.73t7.46,10.8a14.52,14.52,0,0,1-5,10.72,35.32,35.32,0,0,1-14.43,7.76l.88.1a26.81,26.81,0,0,1,13.55,4q5.42,3.54,5.41,8.17,0,5.79-6,11.29c-4,3.6-7.68,6.95-15.31,7.24-11.61-.85-12.87-2.34-18.46-4.22m30.52-44.57a5.49,5.49,0,0,0-3.32-5,15.76,15.76,0,0,0-8-1.87A65.84,65.84,0,0,0,373.65,201a8.53,8.53,0,0,1,2.75,5.69c0,1.78-1.14,7.17-3.43,16.21a44.22,44.22,0,0,1,7.36-3.32q4-1.53,7.86-3.45a22.31,22.31,0,0,0,4.22-2.54,13.1,13.1,0,0,0,2.55-3,6.55,6.55,0,0,0,1.31-3.88Zm.7,29.86c0-2-2.3-3.62-6.88-5a46.54,46.54,0,0,0-13.56-2.06,5.64,5.64,0,0,1-4.61-2.75c-4,15.78-3.68,18.25-4,16.51.83,4.13,7.43,5.77,12.72,5.32a21.52,21.52,0,0,0,11.05-4.74q5.36-3.68,5.36-7.3Zm40.54-43.78a5.49,5.49,0,0,1,1.65-3.73,4.38,4.38,0,0,1,3.14-1.78q1.67,0,3.93,4a14,14,0,0,1,2.26,6.63,2.46,2.46,0,0,1-.25,1,2.53,2.53,0,0,1-.63.79,2.87,2.87,0,0,1-1.88.78,8.21,8.21,0,0,1-5.29-2.86c-1.94-1.94-2.88-3.55-2.88-4.86ZM437,206.7a4.65,4.65,0,0,1,2,.7,4.54,4.54,0,0,1,1.49,1.56,7.38,7.38,0,0,1,1.66,4.43,84.3,84.3,0,0,1-2.85,13q-2.83,10.72-7.17,24.07c-1.11,3.32-2.52,5-4.21,5a3.12,3.12,0,0,1-1.31-.28,3,3,0,0,1-1.06-.8,3.94,3.94,0,0,1-1-2.55,22.27,22.27,0,0,1,.7-4.52c.51-2.1,1.24-4.84,2.15-8.29s1.74-6.29,2.26-8.44,1.17-4.58,1.77-7.27,1.05-5,1.38-6.63.81-3.4,1.28-5.11c1-3.19,1.92-4.8,2.83-4.8Zm51.4,16.71a18.21,18.21,0,0,0-1.08-6.29,8.44,8.44,0,0,0-3.15-4.43q-6.76,1.88-11.61,10.52a32.88,32.88,0,0,0-4.81,16.11q0,7.56,3.73,9.43,7.06-1.4,12-9.63A30.84,30.84,0,0,0,488.36,223.41Zm-25.82.88a36.59,36.59,0,0,1,8.94-12.58,17.08,17.08,0,0,1,11.37-5,12,12,0,0,1,5.52,1.29,12.18,12.18,0,0,1,4.32,3.68,18.64,18.64,0,0,1,4,12,34.48,34.48,0,0,1-3.45,14.55,33.72,33.72,0,0,1-9.52,12.27,19.91,19.91,0,0,1-12.77,4.81,9.93,9.93,0,0,1-8.29-4.61,19.36,19.36,0,0,1-3.32-11.69,36.94,36.94,0,0,1,3.18-14.76Z" transform="translate(-0.22 0.01)"/><path class="cls-4" d="M193.1,295.05H119.28l27.25-22.39V242.8C113.79,240,82.79,216.87,71,193H239c-14,29.17-49.36,49-73,49.24l.13,30.39Z" transform="translate(-0.22 0.01)"/><path class="cls-4" d="M121.31,174.79H63.37c-11.93-45.14,3.72-92.35,48.5-113.08C157.68,39,206.73,56.18,228.29,86s18.56,82.66-17.41,88.75c-41.27,7-60.41-36.28-34-65.53,11.61-12.8,15.66-24.74,14.52-33.68A17.27,17.27,0,0,0,176,61C127.73,55.12,116,139.59,121.31,174.79Z" transform="translate(-0.22 0.01)"/><path class="cls-4" d="M91,288.5l26.5-20.64C-8.34,222.83,13,37.7,151.74,30.21a38.47,38.47,0,0,1,6.44,0c149.1,15.66,152.15,196.55,37.12,237.65l26.21,21C366,211.33,316.67,2.64,158.11,0S-68.12,208.48,91,288.5Z" transform="translate(-0.22 0.01)"/><path class="cls-5" d="M550.56,47.89A22.4,22.4,0,1,0,528.17,25.5,22.39,22.39,0,0,0,550.56,47.89Z" transform="translate(-0.22 0.01)"/><path class="cls-6" d="M357.86,269.34H869" transform="translate(-0.22 0.01)"/><path class="cls-7" d="M671.05,166.11c-1.84-1.09-3.12-4.23-4.17-6.63a71.44,71.44,0,0,1-3.1-11.22l-2.07-9.65Q659.12,127,654.48,122t-15.18-6.63V115a41.34,41.34,0,0,0,21.15-9.14q8.09-7.07,8.09-19.49,0-13.44-10.86-20.69t-34-7.25H523.26v0H430.67v0h-5a4,4,0,0,1-.87.39,5,5,0,0,1-1.41,2,7.7,7.7,0,0,1-4.62.83,30.08,30.08,0,0,1-5.28-1.35c-1.62-.56-2.65-.91-3.12-1a44.51,44.51,0,0,0-15.09-2.92,46.9,46.9,0,0,0-20.53,4.31A32.81,32.81,0,0,0,361,73.15,34.45,34.45,0,0,0,356,92q-.25,13.27,7.07,21.38t22.24,13.27l12.26,4.31q9.48,3.26,14,7.77a15.44,15.44,0,0,1,4.66,11.72q0,9.66-6.63,14.49a25.44,25.44,0,0,1-15.51,4.82,29,29,0,0,1-15.36-4.31,40,40,0,0,1-11.38-11,95.47,95.47,0,0,1-5.11-8.46L356.91,132l.1,41.62h5.69c.91-2.08,2.59-4.43,5.11-4.43a14.12,14.12,0,0,1,4.31.86c1.79.46,2.87.75,3.45.86a66,66,0,0,0,19.34,3.54,47.43,47.43,0,0,0,19.49-4.15,36.39,36.39,0,0,0,15.16-12.94,37.85,37.85,0,0,0,5.87-21.56q0-24-25.92-33.41l-15.34-5.53q-6.76-2.41-10.35-4a22.37,22.37,0,0,1-6.9-5.18,13.72,13.72,0,0,1-3.32-9.3,15.24,15.24,0,0,1,6-12.43,23.21,23.21,0,0,1,14.92-4.82,26.72,26.72,0,0,1,18.63,7.23,42.55,42.55,0,0,1,12.17,21h8.56q1-12.44,7.25-18.81A20.58,20.58,0,0,1,456.51,64h7.77v93.12a21.18,21.18,0,0,1-.68,6.39,9.71,9.71,0,0,1-2.92,3.85,11.29,11.29,0,0,1-7.78,2.57v2.37h52.41v-2.37a11.63,11.63,0,0,1-7.1-1.81c-1.49-.45-3-3.47-3.41-4.61a20.57,20.57,0,0,1-.7-6.39V64h6.38q20.52,0,24,25.35h6.9V64.87a4.63,4.63,0,0,1,1.67.88,4.74,4.74,0,0,1,1.32,1.78,17.37,17.37,0,0,1,.86,6.64v82.7a22.17,22.17,0,0,1-.68,6.64,8.41,8.41,0,0,1-3.32,4.31,12.38,12.38,0,0,1-7.86,2.11v2.37H623.56v-2.37c-3.45,0-5.08-1.53-7.48-2.77a10,10,0,0,1-3.07-3.83,21.08,21.08,0,0,1-.68-6.37V119.48h7.07q5.85,0,8.62,3.32a22.59,22.59,0,0,1,4.15,9.84l5.16,23.78a43.54,43.54,0,0,0,3.45,9.67,16.78,16.78,0,0,0,4.66,6.21h34v-2.49A13.24,13.24,0,0,1,671.05,166.11ZM582,163.51a5.75,5.75,0,0,1-2.81,2.92,16.46,16.46,0,0,1-8.4,1.84v.08c-.48-.24-1.1-.59-2-1.14a7.73,7.73,0,0,1-3.23-3.62,21.18,21.18,0,0,1-.68-6.63V74.25a21,21,0,0,1,.68-6.64,4.7,4.7,0,0,1,1.22-1.74,4.65,4.65,0,0,1,1.88-1,19.57,19.57,0,0,1,10.08-.07,4.18,4.18,0,0,1,3.1,2.76,16.48,16.48,0,0,1,.88,6.38v82.94A21.22,21.22,0,0,1,582,163.51Zm52.14-56.58q-5.29,5.7-16.9,5.7l-4.81,0V70.88c0-2.52.41-4,1.21-4.83s2.52-1.19,5.16-1.19q10.72.17,15.7,5.85t5,17.77Q639.39,101.22,634.11,106.93Z" transform="translate(-0.22 0.01)"/><path class="cls-7" d="M857.36,142.77c-3,9.49-6.37,14.8-11.89,18.25s-13.22,5-23.1,5a29.36,29.36,0,0,1-7.42-.68,4.16,4.16,0,0,1-1.65-.9,4.08,4.08,0,0,1-1.1-1.53,28.37,28.37,0,0,1-.52-6.63v-82a21.54,21.54,0,0,1,.68-6.64,8.42,8.42,0,0,1,2.94-3.68,15,15,0,0,1,8.11-3.09V58.6a4.53,4.53,0,0,1-.66-.13H770.09v2.37a13.12,13.12,0,0,1,7.47,2.09,6.43,6.43,0,0,1,1.76,1.34,6.2,6.2,0,0,1,1.06,1.33,15.59,15.59,0,0,1,.92,1.83,22.83,22.83,0,0,1,.68,6.74v30.08q-2.57-20.56-14.66-32.69Q752.14,56.38,724,56.38q-28.27,0-43.46,15.18T665.41,115.2q-.17,28.45,15.17,43.63T724,174l0,0q28,.06,43.33-15.13,12.1-12,14.66-32.24v30.33a22.17,22.17,0,0,1-.68,6.64,6.34,6.34,0,0,1-2.66,3.78c-1.17,1.29-4.66,2.64-8.55,2.64L770,172.3h91.4l.13-42.68ZM745.25,155.55q-6,12.76-21.21,12.77l0,0q-15.32.18-21.35-12.75t-6-40.34q-.2-27.25,6-40.19T724,62.12q14,.2,20.68,13.27t6.74,39.81Q751.3,142.77,745.25,155.55Z" transform="translate(-0.22 0.01)"/><path class="cls-8" d="M519.33,251v-53.2h24.31a30.44,30.44,0,0,1,12.54,2.35,18.21,18.21,0,0,1,8.21,6.84,20.34,20.34,0,0,1,0,20.9,18.85,18.85,0,0,1-8.21,6.83,30.29,30.29,0,0,1-12.54,2.36H527.69l6.63-6.54V251Zm15-18.85-6.63-6.92h15a10.17,10.17,0,0,0,7-2.05,8.16,8.16,0,0,0,0-11.48,10.23,10.23,0,0,0-7-2.06h-15l6.63-6.91Zm88.34-34.35h15V251h-15ZM602.19,251h-15v-53.2h15Zm21.57-20.76H601.15V217.77h22.64ZM654.51,251,678,197.78h14.83L716.38,251H700.67l-18.25-45.84h5.94L670,251Zm12.85-10.34,3.87-11.1h26l3.88,11.1ZM733.18,251v-53.2h24.31A30.28,30.28,0,0,1,770,200.13a18.21,18.21,0,0,1,8.21,6.84,18.58,18.58,0,0,1-1.54,22.87,18.59,18.59,0,0,1-6.67,4.71,31.09,31.09,0,0,1-12.54,2.29h-16l6.63-6.32V251Zm32.91,0-13.27-19.39h16L782.13,251Zm-17.87-18.85-6.63-6.92h15a10.22,10.22,0,0,0,7-2.05,8.19,8.19,0,0,0,0-11.48,10.28,10.28,0,0,0-7-2.06h-15l6.63-6.91ZM802,251v-53.2h12.39l22,36.16h-6.52l21.43-36.16H863.7l.15,53.2H850l-.16-32.15h2.35l-16,26.9h-6.64l-16.48-26.9H816V251Z" transform="translate(-0.22 0.01)"/></g></svg>