<svg xmlns="http://www.w3.org/2000/svg" viewBox="0 0 46 46"><defs><style>.cls-1,.cls-3{fill:#4fb04f;}.cls-1,.cls-4{stroke:#fff;}.cls-1,.cls-2{stroke-width:2px;}.cls-2{fill:#fff;stroke:#4fb04f;}.cls-4{fill:none;stroke-linecap:round;stroke-linejoin:round;stroke-width:1.5px;}</style></defs><g id="Слой_1" data-name="Слой 1"><circle class="cls-1" cx="23" cy="23" r="22"/><circle class="cls-2" cx="23" cy="23" r="21.97"/><circle class="cls-2" cx="23" cy="23" r="21.97"/><path class="cls-3" d="M32.87,26.41a9.49,9.49,0,0,1-19,0,8.31,8.31,0,0,1,2.16-6c1.74-2.11,7.32-9.47,7.32-9.47S29,18.28,30.7,20.39A8.17,8.17,0,0,1,32.87,26.41Z" transform="translate(-0.38 -0.4)"/><path class="cls-4" d="M23.38,35.88V34.07m0-18.16v7.26m0,0,3.5-3.63m-3.5,3.63v5.45m0-5.45-3.49-3.63m7,5.45-3.5,3.63m0,0v5.45m0-5.45L19.89,25m7,5.44-3.5,3.64m0,0-3.49-3.64" transform="translate(-0.38 -0.4)"/></g><g id="Слой_2" data-name="Слой 2"><circle class="cls-2" cx="23" cy="23" r="21.97"/><circle class="cls-2" cx="23" cy="23" r="21.97"/><path class="cls-4" d="M23.38,35.88V34.07m0-18.16v7.26m0,0,3.5-3.63m-3.5,3.63v5.45m0-5.45-3.49-3.63m7,5.45-3.5,3.63m0,0v5.45m0-5.45L19.89,25m7,5.44-3.5,3.64m0,0-3.49-3.64" transform="translate(-0.38 -0.4)"/><rect class="cls-3" x="19" y="11" width="8" height="24" rx="1"/><rect class="cls-3" x="11" y="19" width="24" height="8" rx="1"/></g></svg>